<?xml version="1.0" encoding="UTF-8" standalone="no"?>
<!-- Generator: Adobe Illustrator 16.0.0, SVG Export Plug-In . SVG Version: 6.00 Build 0)  -->

<svg
   xmlns:dc="http://purl.org/dc/elements/1.1/"
   xmlns:cc="http://creativecommons.org/ns#"
   xmlns:rdf="http://www.w3.org/1999/02/22-rdf-syntax-ns#"
   xmlns:svg="http://www.w3.org/2000/svg"
   xmlns="http://www.w3.org/2000/svg"
   xmlns:sodipodi="http://sodipodi.sourceforge.net/DTD/sodipodi-0.dtd"
   xmlns:inkscape="http://www.inkscape.org/namespaces/inkscape"
   version="1.1"
   id="svg3"
   x="0px"
   y="0px"
   width="1024px"
   height="768px"
   viewBox="0 0 1024 768"
   enable-background="new 0 0 1024 768"
   xml:space="preserve"
   inkscape:version="0.48.4 r9939"
   sodipodi:docname="scene.svg"><metadata
     id="metadata552"><rdf:RDF><cc:Work
         rdf:about=""><dc:format>image/svg+xml</dc:format><dc:type
           rdf:resource="http://purl.org/dc/dcmitype/StillImage" /></cc:Work></rdf:RDF></metadata><defs
     id="defs550" /><sodipodi:namedview
     pagecolor="#ffffff"
     bordercolor="#666666"
     borderopacity="1"
     objecttolerance="10"
     gridtolerance="10"
     guidetolerance="10"
     inkscape:pageopacity="0"
     inkscape:pageshadow="2"
     inkscape:window-width="1920"
     inkscape:window-height="1018"
     id="namedview548"
     showgrid="false"
     inkscape:zoom="1.1575153"
     inkscape:cx="512"
     inkscape:cy="394.35484"
     inkscape:window-x="0"
     inkscape:window-y="30"
     inkscape:window-maximized="1"
     inkscape:current-layer="interested" /><g
     id="svgScene3"
     transform="translate(46.651651,191.79011)"><rect
       x="-8168"
       y="-5681.6152"
       width="16535.688"
       height="12159.688"
       id="rect4"
       style="fill:#44c650" /></g><g
     id="g6"><path
       fill="#459B45"
       d="M768.53,265.132L708.679,420.09l16.312,6.303l59.852-154.958L768.53,265.132z M772.747,278.476   c-1.126-0.435-1.687-1.701-1.25-2.826c0.435-1.126,1.698-1.687,2.826-1.252c1.126,0.438,1.688,1.701,1.252,2.828   C775.14,278.351,773.874,278.912,772.747,278.476z"
       id="path8" /><path
       fill="#F6BB42"
       d="M770.024,264.633l-59.853,154.958l16.312,6.303l59.85-154.958L770.024,264.633z M774.242,277.978   c-1.126-0.436-1.687-1.701-1.25-2.826c0.434-1.127,1.698-1.688,2.825-1.253c1.127,0.438,1.688,1.702,1.253,2.828   C776.634,277.852,775.369,278.413,774.242,277.978z"
       id="path10" /><rect
       x="763.471"
       y="281.815"
       transform="matrix(-0.9329 -0.3602 0.3602 -0.9329 1380.4189 821.4254)"
       fill="#FFFFFF"
       width="6.554"
       height="0.546"
       id="rect12" /><rect
       x="757.242"
       y="298.142"
       transform="matrix(-0.9328 -0.3603 0.3603 -0.9328 1362.4451 850.8001)"
       fill="#FFFFFF"
       width="6.557"
       height="0.545"
       id="rect14" /><rect
       x="750.879"
       y="314.503"
       transform="matrix(-0.9328 -0.3604 0.3604 -0.9328 1344.1895 880.1945)"
       fill="#FFFFFF"
       width="6.555"
       height="0.546"
       id="rect16" /><rect
       x="744.59"
       y="330.741"
       transform="matrix(-0.9328 -0.3603 0.3603 -0.9328 1326.245 909.2494)"
       fill="#FFFFFF"
       width="6.557"
       height="0.544"
       id="rect18" /><rect
       x="738.206"
       y="347.053"
       transform="matrix(-0.9328 -0.3603 0.3603 -0.9328 1308.0288 938.4792)"
       fill="#FFFFFF"
       width="6.557"
       height="0.545"
       id="rect20" /><rect
       x="732.025"
       y="363.416"
       transform="matrix(-0.9329 -0.3602 0.3602 -0.9329 1290.2609 967.809)"
       fill="#FFFFFF"
       width="6.557"
       height="0.545"
       id="rect22" /><rect
       x="725.72"
       y="379.727"
       transform="matrix(-0.9328 -0.3604 0.3604 -0.9328 1272.0793 997.1733)"
       fill="#FFFFFF"
       width="6.557"
       height="0.548"
       id="rect24" /><rect
       x="719.333"
       y="396.08"
       transform="matrix(-0.9328 -0.3603 0.3603 -0.9328 1253.8848 1026.442)"
       fill="#FFFFFF"
       width="6.557"
       height="0.548"
       id="rect26" /><rect
       x="713.149"
       y="412.283"
       transform="matrix(-0.9328 -0.3604 0.3604 -0.9328 1236.0421 1055.5767)"
       fill="#FFFFFF"
       width="6.558"
       height="0.548"
       id="rect28" /><rect
       x="761.995"
       y="285.52"
       transform="matrix(-0.9329 -0.3601 0.3601 -0.9329 1374.1714 827.6068)"
       fill="#FFFFFF"
       width="4.371"
       height="0.547"
       id="rect30" /><rect
       x="760.404"
       y="289.599"
       transform="matrix(-0.9328 -0.3604 0.3604 -0.9328 1369.4578 835.1098)"
       fill="#FFFFFF"
       width="4.372"
       height="0.548"
       id="rect32" /><rect
       x="758.792"
       y="293.66"
       transform="matrix(-0.9328 -0.3604 0.3604 -0.9328 1364.8773 842.3758)"
       fill="#FFFFFF"
       width="4.372"
       height="0.547"
       id="rect34" /><rect
       x="757.276"
       y="297.765"
       transform="matrix(-0.9328 -0.3604 0.3604 -0.9328 1360.4805 849.7496)"
       fill="#FFFFFF"
       width="4.371"
       height="0.547"
       id="rect36" /><rect
       x="755.752"
       y="301.852"
       transform="matrix(-0.9328 -0.3603 0.3603 -0.9328 1356.0948 857.0649)"
       fill="#FFFFFF"
       width="4.373"
       height="0.547"
       id="rect38" /><rect
       x="754.098"
       y="305.901"
       transform="matrix(-0.9329 -0.36 0.36 -0.9329 1351.6262 864.0939)"
       fill="#FFFFFF"
       width="4.371"
       height="0.545"
       id="rect40" /><rect
       x="752.527"
       y="310.043"
       transform="matrix(-0.9327 -0.3607 0.3607 -0.9327 1346.7153 871.9361)"
       fill="#FFFFFF"
       width="4.37"
       height="0.544"
       id="rect42" /><rect
       x="750.946"
       y="314.058"
       transform="matrix(-0.933 -0.36 0.36 -0.933 1342.609 878.7152)"
       fill="#FFFFFF"
       width="4.37"
       height="0.548"
       id="rect44" /><rect
       x="749.379"
       y="318.151"
       transform="matrix(-0.9329 -0.3602 0.3602 -0.9329 1337.9629 886.2111)"
       fill="#FFFFFF"
       width="4.373"
       height="0.548"
       id="rect46" /><rect
       x="747.789"
       y="322.224"
       transform="matrix(-0.9327 -0.3606 0.3606 -0.9327 1333.2236 893.7103)"
       fill="#FFFFFF"
       width="4.37"
       height="0.546"
       id="rect48" /><rect
       x="746.281"
       y="326.316"
       transform="matrix(-0.9328 -0.3605 0.3605 -0.9328 1328.8674 901.0437)"
       fill="#FFFFFF"
       width="4.372"
       height="0.546"
       id="rect50" /><rect
       x="744.632"
       y="330.44"
       transform="matrix(-0.9329 -0.3603 0.3603 -0.9329 1324.3491 908.2659)"
       fill="#FFFFFF"
       width="4.374"
       height="0.546"
       id="rect52" /><rect
       x="743.083"
       y="334.443"
       transform="matrix(-0.9328 -0.3605 0.3605 -0.9328 1319.7578 915.5995)"
       fill="#FFFFFF"
       width="4.372"
       height="0.546"
       id="rect54" /><rect
       x="741.451"
       y="338.484"
       transform="matrix(-0.933 -0.3598 0.3598 -0.933 1315.5704 922.4033)"
       fill="#FFFFFF"
       width="4.371"
       height="0.547"
       id="rect56" /><rect
       x="739.932"
       y="342.636"
       transform="matrix(-0.9329 -0.3602 0.3602 -0.9329 1310.9224 930.0916)"
       fill="#FFFFFF"
       width="4.369"
       height="0.546"
       id="rect58" /><rect
       x="738.427"
       y="346.75"
       transform="matrix(-0.9325 -0.3611 0.3611 -0.9325 1305.9669 938.0452)"
       fill="#FFFFFF"
       width="4.372"
       height="0.544"
       id="rect60" /><rect
       x="736.788"
       y="350.785"
       transform="matrix(-0.9329 -0.3602 0.3602 -0.9329 1301.8838 944.7385)"
       fill="#FFFFFF"
       width="4.372"
       height="0.547"
       id="rect62" /><rect
       x="735.166"
       y="354.849"
       transform="matrix(-0.9328 -0.3603 0.3603 -0.9328 1297.2356 952.0547)"
       fill="#FFFFFF"
       width="4.371"
       height="0.546"
       id="rect64" /><rect
       x="733.631"
       y="358.931"
       transform="matrix(-0.9328 -0.3604 0.3604 -0.9328 1292.7363 959.4482)"
       fill="#FFFFFF"
       width="4.371"
       height="0.545"
       id="rect66" /><rect
       x="732.095"
       y="363.048"
       transform="matrix(-0.9328 -0.3605 0.3605 -0.9328 1288.2219 966.908)"
       fill="#FFFFFF"
       width="4.371"
       height="0.544"
       id="rect68" /><rect
       x="730.488"
       y="367.133"
       transform="matrix(-0.9327 -0.3607 0.3607 -0.9327 1283.5303 974.327)"
       fill="#FFFFFF"
       width="4.37"
       height="0.545"
       id="rect70" /><rect
       x="728.916"
       y="371.219"
       transform="matrix(-0.9328 -0.3603 0.3603 -0.9328 1279.2437 981.4574)"
       fill="#FFFFFF"
       width="4.372"
       height="0.547"
       id="rect72" /><rect
       x="727.314"
       y="375.296"
       transform="matrix(-0.9329 -0.3601 0.3601 -0.9329 1274.8206 988.634)"
       fill="#FFFFFF"
       width="4.37"
       height="0.548"
       id="rect74" /><rect
       x="725.727"
       y="379.354"
       transform="matrix(-0.9329 -0.36 0.36 -0.9329 1270.3406 995.8623)"
       fill="#FFFFFF"
       width="4.371"
       height="0.548"
       id="rect76" /><rect
       x="724.193"
       y="383.385"
       transform="matrix(-0.9328 -0.3603 0.3603 -0.9328 1265.7317 1003.2672)"
       fill="#FFFFFF"
       width="4.372"
       height="0.545"
       id="rect78" /><rect
       x="722.618"
       y="387.46"
       transform="matrix(-0.9328 -0.3603 0.3603 -0.9328 1261.2205 1010.5776)"
       fill="#FFFFFF"
       width="4.372"
       height="0.546"
       id="rect80" /><rect
       x="721.01"
       y="391.616"
       transform="matrix(-0.9331 -0.3597 0.3597 -0.9331 1257.0569 1017.6549)"
       fill="#FFFFFF"
       width="4.372"
       height="0.547"
       id="rect82" /><rect
       x="719.51"
       y="395.629"
       transform="matrix(-0.9329 -0.3601 0.3601 -0.9329 1252.3994 1025.136)"
       fill="#FFFFFF"
       width="4.371"
       height="0.546"
       id="rect84" /><rect
       x="717.944"
       y="399.734"
       transform="matrix(-0.9329 -0.3602 0.3602 -0.9329 1247.8427 1032.548)"
       fill="#FFFFFF"
       width="4.371"
       height="0.545"
       id="rect86" /><rect
       x="716.317"
       y="403.752"
       transform="matrix(-0.9329 -0.3602 0.3602 -0.9329 1243.2505 1039.7292)"
       fill="#FFFFFF"
       width="4.371"
       height="0.545"
       id="rect88" /><rect
       x="714.811"
       y="407.78"
       transform="matrix(-0.933 -0.36 0.36 -0.933 1239.0464 1046.8508)"
       fill="#FFFFFF"
       width="4.373"
       height="0.548"
       id="rect90" /><rect
       x="713.223"
       y="411.938"
       transform="matrix(-0.9331 -0.3597 0.3597 -0.9331 1234.6411 1054.1813)"
       fill="#FFFFFF"
       width="4.371"
       height="0.548"
       id="rect92" /></g><g
     id="g94"><circle
       fill="#459B45"
       cx="59.401"
       cy="392.135"
       r="52.096"
       id="circle96" /><circle
       fill="#F5ECD9"
       cx="63.401"
       cy="389.135"
       r="52.096"
       id="circle98" /><circle
       fill="#2BACB5"
       cx="63.401"
       cy="389.135"
       r="39.072"
       id="circle100" /><ellipse
       transform="matrix(0.9964 -0.0845 0.0845 0.9964 -35.7318 7.8678)"
       fill="#D8D8DA"
       cx="75.102"
       cy="426.151"
       rx="11.907"
       ry="7.94"
       id="ellipse102" /><polygon
       fill="#D8D8DA"
       points="126.844,425.732 84.218,427.225 83.905,423.527 126.173,417.82  "
       id="polygon104" /><ellipse
       transform="matrix(0.9964 -0.0845 0.0845 0.9964 -35.7395 7.8706)"
       fill="#95989F"
       cx="75.108"
       cy="426.134"
       rx="9.922"
       ry="6.615"
       id="ellipse106" /><path
       fill="#FFFFFF"
       d="M107.468,360.924l-12.831,10.02c-2.126,1.659-5.196,1.282-6.855-0.845c-1.66-2.126-1.282-5.195,0.844-6.854   l12.832-10.021c2.126-1.659,5.195-1.281,6.855,0.845C109.973,356.196,109.595,359.265,107.468,360.924z"
       id="path108" /><circle
       fill="#FFFFFF"
       cx="63.401"
       cy="389.135"
       r="35.816"
       id="circle110" /><circle
       fill="#E6E7E8"
       cx="63.401"
       cy="389.136"
       r="32.235"
       id="circle112" /><circle
       fill="#49433C"
       cx="63.4"
       cy="389.136"
       r="30.444"
       id="circle114" /><path
       fill="#363532"
       d="M46.369,367.32c-12.029,9.392-14.175,26.817-4.783,38.846c0.554,0.709,1.577,0.836,2.285,0.282   c0.709-0.554,0.835-1.575,0.282-2.284c-0.227-0.289-0.443-0.586-0.655-0.884c-0.058-0.081-0.114-0.162-0.171-0.243   c-0.194-0.281-0.385-0.564-0.567-0.854c-0.059-0.097-0.114-0.188-0.173-0.283c-0.122-0.199-0.242-0.4-0.358-0.604   c-0.078-0.135-0.156-0.271-0.23-0.405c-0.128-0.231-0.253-0.47-0.372-0.707c-0.094-0.185-0.183-0.367-0.271-0.556   c-0.066-0.139-0.132-0.276-0.195-0.418c-0.078-0.174-0.156-0.347-0.23-0.521c-0.107-0.252-0.211-0.506-0.31-0.765   c-0.064-0.163-0.124-0.334-0.185-0.5c-0.058-0.159-0.115-0.323-0.17-0.485c-0.052-0.152-0.104-0.31-0.152-0.461   c-0.092-0.291-0.179-0.584-0.259-0.879c-0.03-0.107-0.057-0.218-0.084-0.322c-0.066-0.258-0.129-0.516-0.188-0.773   c-0.019-0.084-0.038-0.166-0.056-0.248c-0.075-0.352-0.143-0.705-0.202-1.061c-0.003-0.021-0.007-0.038-0.01-0.057   c-0.033-0.205-0.067-0.41-0.096-0.615c-0.021-0.155-0.038-0.312-0.057-0.467c-0.003-0.024-0.007-0.054-0.01-0.078   c-0.09-0.771-0.142-1.535-0.157-2.304c0-0.01,0-0.018,0-0.022c-0.016-0.762,0.005-1.521,0.06-2.271   c0.004-0.045,0.008-0.09,0.011-0.133c0.028-0.352,0.062-0.701,0.104-1.049c0.003-0.021,0.004-0.04,0.007-0.061   c0.041-0.33,0.091-0.658,0.146-0.984c0.021-0.135,0.047-0.271,0.07-0.4c0.034-0.184,0.069-0.365,0.107-0.547   c0.137-0.664,0.302-1.324,0.493-1.977c0.002-0.009,0.005-0.017,0.007-0.024c1.045-3.522,2.875-6.796,5.376-9.54   c0.016-0.018,0.03-0.035,0.046-0.052c0.144-0.156,0.289-0.31,0.437-0.462c0.121-0.125,0.244-0.249,0.369-0.372   c0.126-0.125,0.252-0.251,0.383-0.373c0.221-0.21,0.446-0.415,0.676-0.617c0.08-0.07,0.162-0.14,0.244-0.211   c0.275-0.235,0.555-0.468,0.843-0.692c0.287-0.225,0.58-0.439,0.876-0.649c0.088-0.062,0.176-0.124,0.264-0.186   c0.252-0.174,0.506-0.344,0.763-0.507c0.15-0.096,0.303-0.188,0.454-0.28c0.149-0.091,0.3-0.18,0.45-0.267   c0.185-0.107,0.368-0.211,0.555-0.312c0.02-0.011,0.041-0.021,0.062-0.032c3.27-1.761,6.888-2.741,10.559-2.9   c0.009-0.001,0.018-0.001,0.025-0.002c0.68-0.026,1.358-0.027,2.038,0.001c0.185,0.008,0.37,0.018,0.556,0.029   c0.136,0.009,0.271,0.018,0.406,0.028c0.33,0.026,0.66,0.059,0.989,0.099c0.021,0.002,0.04,0.006,0.061,0.008   c0.348,0.043,0.694,0.095,1.041,0.153c0.044,0.008,0.088,0.016,0.133,0.022c0.745,0.129,1.484,0.293,2.22,0.492   c0.008,0.002,0.016,0.005,0.023,0.007c0.738,0.201,1.472,0.438,2.196,0.711c0.023,0.01,0.048,0.019,0.073,0.028   c0.146,0.056,0.292,0.109,0.438,0.168c0.192,0.077,0.383,0.16,0.573,0.242c0.018,0.008,0.036,0.015,0.054,0.022   c0.329,0.145,0.655,0.296,0.978,0.454c0.076,0.037,0.151,0.076,0.228,0.113c0.237,0.119,0.472,0.243,0.705,0.37   c0.098,0.053,0.196,0.105,0.293,0.16c0.268,0.149,0.53,0.305,0.791,0.465c0.138,0.084,0.273,0.172,0.409,0.259   c0.145,0.093,0.289,0.188,0.432,0.283c0.147,0.1,0.295,0.198,0.441,0.3c0.225,0.158,0.446,0.32,0.664,0.485   c0.151,0.114,0.3,0.231,0.448,0.35c0.121,0.096,0.241,0.192,0.359,0.291c0.159,0.131,0.316,0.262,0.473,0.396   c0.201,0.175,0.399,0.353,0.595,0.533c0.114,0.105,0.227,0.214,0.339,0.322c0.169,0.162,0.335,0.327,0.499,0.495   c0.077,0.079,0.156,0.155,0.232,0.236c0.236,0.246,0.465,0.5,0.69,0.757c0.064,0.074,0.13,0.149,0.194,0.225   c0.238,0.278,0.472,0.56,0.698,0.849c0.553,0.709,1.576,0.835,2.285,0.281c0.708-0.554,0.834-1.576,0.281-2.285   C75.824,360.074,58.397,357.929,46.369,367.32z"
       id="path116" /><path
       fill="#363532"
       d="M86.746,377.466c-0.825,0.351-1.214,1.308-0.861,2.135c0.093,0.218,0.177,0.438,0.262,0.656   c0.014,0.032,0.027,0.065,0.04,0.098c0,0.002,0.001,0.004,0.002,0.006c0.079,0.206,0.153,0.412,0.228,0.619   c0.002,0.007,0.004,0.013,0.007,0.018c0.018,0.054,0.037,0.106,0.056,0.16c0.001,0.004,0.003,0.009,0.004,0.013   c0.075,0.217,0.147,0.435,0.216,0.652c0.002,0.005,0.003,0.009,0.005,0.014c0.004,0.014,0.008,0.028,0.013,0.042   c0.004,0.013,0.007,0.026,0.011,0.039c0.144,0.461,0.269,0.927,0.384,1.393c0.013,0.053,0.027,0.104,0.04,0.157   c0.107,0.453,0.201,0.908,0.283,1.365c0.02,0.108,0.039,0.22,0.057,0.326c-0.011-0.062-0.019-0.125-0.029-0.188   c0.011,0.064,0.02,0.129,0.03,0.193c0-0.002-0.001-0.006-0.001-0.006c0.024,0.145,0.047,0.295,0.069,0.441   c-0.001-0.004-0.002-0.013-0.003-0.019c0.008,0.056,0.019,0.104,0.025,0.158c0,0.002,0,0.004,0,0.006   c-0.007-0.05-0.016-0.103-0.022-0.146c0.009,0.062,0.017,0.129,0.025,0.19c0.062,0.578-0.185,1.123-0.615,1.459   c-0.217,0.17-0.482,0.287-0.776,0.328c-0.885,0.123-1.701-0.49-1.833-1.373c0-0.002-0.001-0.002-0.001-0.004   c-0.001-0.005-0.002-0.011-0.003-0.013c-0.189-1.36-0.514-2.698-0.962-3.991c-0.002-0.004-0.003-0.008-0.005-0.012   c-0.006-0.021-0.014-0.04-0.021-0.06c-0.001-0.005-0.004-0.01-0.005-0.016c-0.151-0.429-0.316-0.854-0.494-1.273   c-0.361-0.807-1.302-1.181-2.119-0.834c-0.819,0.349-1.205,1.292-0.869,2.114c0.95,2.223,1.436,4.613,1.425,7.059   c-0.001,0.064,0,0.133,0,0.193c-0.003,0.166-0.01,0.332-0.017,0.5c-0.005,0.104-0.01,0.211-0.016,0.312   c-0.01,0.155-0.021,0.312-0.034,0.469c-0.01,0.109-0.021,0.221-0.032,0.328c-0.012,0.112-0.02,0.227-0.033,0.336   c-0.002,0.02-0.008,0.029-0.01,0.045c-0.004,0.021-0.011,0.041-0.015,0.062c-0.077,0.4-0.289,0.742-0.59,0.979   c-0.329,0.261-0.755,0.392-1.201,0.334c-0.893-0.108-1.526-0.924-1.417-1.812c0.316-2.562-0.04-5.106-1.012-7.43l-0.05-0.101   c-0.356-0.815-1.304-1.194-2.125-0.846c-0.825,0.351-1.214,1.307-0.862,2.138c2.013,4.734,0.581,10.26-3.479,13.432   c-4.062,3.171-9.767,3.22-13.875,0.117c-0.718-0.541-1.738-0.397-2.279,0.316c-0.538,0.715-0.4,1.725,0.304,2.27l0.234,0.183   c1.983,1.442,4.312,2.367,6.812,2.677c0.893,0.108,1.526,0.922,1.417,1.812c-0.055,0.445-0.286,0.828-0.614,1.086   c-0.301,0.232-0.686,0.355-1.091,0.334c-0.021,0-0.042,0.002-0.063-0.002c-0.016-0.001-0.03,0.002-0.046,0   c-0.113-0.016-0.224-0.033-0.336-0.051c-0.108-0.019-0.218-0.029-0.325-0.049c-0.155-0.023-0.309-0.054-0.462-0.08   c-0.104-0.021-0.208-0.041-0.311-0.062c-0.164-0.032-0.327-0.065-0.489-0.104c-0.062-0.017-0.124-0.03-0.187-0.047   c-2.374-0.58-4.578-1.634-6.504-3.095c-0.717-0.524-1.726-0.383-2.261,0.33c-0.536,0.709-0.4,1.711,0.295,2.258   c0.362,0.275,0.734,0.537,1.114,0.787c0.005,0.004,0.009,0.007,0.014,0.011c0.018,0.014,0.035,0.022,0.054,0.034   c0.003,0.005,0.008,0.005,0.011,0.009c1.146,0.748,2.363,1.387,3.64,1.899c0.003,0.002,0.006,0.004,0.009,0.006   c0.001,0,0.003,0,0.005,0.002c0.824,0.343,1.221,1.283,0.887,2.111c-0.11,0.272-0.288,0.504-0.506,0.674   c-0.432,0.336-1.021,0.442-1.567,0.242c-0.053-0.021-0.106-0.041-0.158-0.063c-0.2-0.082-0.399-0.168-0.598-0.255   c-0.096-0.043-0.191-0.084-0.286-0.127c-0.203-0.092-0.403-0.188-0.604-0.289c-0.085-0.04-0.171-0.079-0.255-0.122   c-0.223-0.111-0.442-0.229-0.661-0.351c-0.061-0.031-0.122-0.062-0.182-0.099c-0.272-0.149-0.541-0.309-0.807-0.471   c-0.018-0.01-0.035-0.02-0.052-0.027c-0.006-0.004-0.012-0.006-0.018-0.01c-0.206-0.129-0.411-0.258-0.614-0.393   c-0.044-0.025-0.088-0.059-0.131-0.086c-0.006-0.002-0.011-0.008-0.016-0.012c-0.113-0.074-0.225-0.15-0.337-0.229   c-0.073-0.051-0.148-0.099-0.222-0.147c-0.024-0.021-0.048-0.035-0.072-0.055c-0.195-0.14-0.392-0.273-0.585-0.423   c-0.718-0.541-1.74-0.396-2.28,0.317c-0.541,0.718-0.398,1.736,0.318,2.279c9.979,7.531,23.835,7.416,33.697-0.285   c9.862-7.696,13.337-21.11,8.448-32.62C88.53,377.5,87.574,377.114,86.746,377.466z M53.499,411.451   c-0.08-0.035-0.161-0.07-0.241-0.107C53.338,411.381,53.419,411.416,53.499,411.451z M52.604,411.033   c-0.068-0.033-0.139-0.066-0.209-0.104C52.465,410.967,52.536,411,52.604,411.033z M51.692,410.561   c-0.047-0.022-0.096-0.051-0.143-0.076C51.596,410.51,51.645,410.534,51.692,410.561z M54.146,411.729   c0.046,0.021,0.093,0.037,0.14,0.059c-0.013-0.004-0.026-0.01-0.038-0.014C54.214,411.758,54.18,411.741,54.146,411.729z"
       id="path118" /><path
       fill="#363532"
       d="M48.672,408.609c0.009,0.009,0.016,0.018,0.024,0.021c0.182,0.14,0.366,0.271,0.551,0.396   C49.053,408.895,48.861,408.754,48.672,408.609z"
       id="path120" /><path
       fill="#363532"
       d="M85.868,379.57c0.091,0.214,0.178,0.431,0.263,0.647c-0.081-0.207-0.16-0.414-0.247-0.619   C85.879,379.589,85.873,379.581,85.868,379.57z"
       id="path122" /></g><g
     id="g124"><g
       id="g126"><g
         id="g128"><polygon
           fill="#459B45"
           points="306.175,487.959 305.039,476.778 174.833,490.016 175.97,501.196 192.484,663.62     322.688,650.385    "
           id="polygon130" /></g></g><g
       id="g132"><g
         id="g134"><rect
           x="185.737"
           y="479.962"
           transform="matrix(0.9949 -0.1011 0.1011 0.9949 -56.0612 28.3022)"
           fill="#F5ECD9"
           width="130.9"
           height="174.532"
           id="rect136" /></g></g><g
       id="g138"><g
         id="g140"><rect
           x="177.483"
           y="480.397"
           transform="matrix(0.9949 -0.1011 0.1011 0.9949 -47.8899 27.0497)"
           fill="#E74C3C"
           width="130.899"
           height="11.239"
           id="rect142" /></g></g><g
       id="g144"><g
         id="g146"><rect
           x="190.271"
           y="505.453"
           transform="matrix(0.9949 -0.1011 0.1011 0.9949 -50.2233 22.6608)"
           fill="#EB9773"
           width="16.363"
           height="2.726"
           id="rect148" /></g></g><g
       id="g150"><g
         id="g152"><rect
           x="189.757"
           y="500.286"
           transform="matrix(0.9949 -0.1011 0.1011 0.9949 -49.7163 22.3058)"
           fill="#E25A5A"
           width="10.905"
           height="2.727"
           id="rect154" /></g></g><g
       opacity="0.5"
       id="g156"><g
         id="g158"><rect
           x="196.838"
           y="514.922"
           transform="matrix(0.9949 -0.1011 0.1011 0.9949 -51.1102 24.203)"
           fill="#999999"
           width="32.722"
           height="2.726"
           id="rect160" /></g></g><g
       opacity="0.5"
       id="g162"><g
         id="g164"><rect
           x="201.791"
           y="563.467"
           transform="matrix(0.9949 -0.1011 0.1011 0.9949 -55.9625 25.2155)"
           fill="#999999"
           width="38.094"
           height="2.726"
           id="rect166" /></g></g><g
       id="g168"><g
         id="g170"><rect
           x="234.752"
           y="511.05"
           transform="matrix(0.9949 -0.1011 0.1011 0.9949 -50.5201 28.0142)"
           fill="#999999"
           width="32.725"
           height="2.727"
           id="rect172" /></g></g><g
       opacity="0.5"
       id="g174"><g
         id="g176"><rect
           x="208.759"
           y="524.945"
           transform="matrix(0.9949 -0.1011 0.1011 0.9949 -52.0747 25.1809)"
           fill="#999999"
           width="27.227"
           height="2.725"
           id="rect178" /></g></g><g
       id="g180"><g
         id="g182"><rect
           x="202.81"
           y="521.135"
           transform="matrix(0.9949 -0.1011 0.1011 0.9949 -51.755 23.7357)"
           fill="#EB9773"
           width="10.993"
           height="2.726"
           id="rect184" /></g></g><g
       id="g186"><g
         id="g188"><rect
           x="219.022"
           y="518.949"
           transform="matrix(0.9949 -0.1011 0.1011 0.9949 -51.4267 25.9147)"
           fill="#999999"
           width="21.859"
           height="2.727"
           id="rect190" /></g></g><g
       opacity="0.5"
       id="g192"><g
         id="g194"><rect
           x="249.073"
           y="597.542"
           transform="matrix(0.9949 -0.1011 0.1011 0.9949 -59.2128 29.6296)"
           fill="#999999"
           width="27.187"
           height="2.724"
           id="rect196" /></g></g><g
       opacity="0.5"
       id="g198"><g
         id="g200"><rect
           x="224.535"
           y="572.931"
           transform="matrix(0.9949 -0.1011 0.1011 0.9949 -56.8562 26.7487)"
           fill="#999999"
           width="21.859"
           height="2.727"
           id="rect202" /></g></g><g
       opacity="0.5"
       id="g204"><g
         id="g206"><rect
           x="251.718"
           y="569.622"
           transform="matrix(0.9949 -0.1011 0.1011 0.9949 -56.3519 30.0289)"
           fill="#999999"
           width="32.746"
           height="2.727"
           id="rect208" /></g></g><g
       opacity="0.5"
       id="g210"><g
         id="g212"><rect
           x="211.047"
           y="601.096"
           transform="matrix(0.9949 -0.1012 0.1012 0.9949 -59.8036 26.1093)"
           fill="#999999"
           width="32.75"
           height="2.726"
           id="rect214" /></g></g><g
       opacity="0.5"
       id="g216"><g
         id="g218"><rect
           x="214.798"
           y="529.786"
           transform="matrix(0.9949 -0.1011 0.1011 0.9949 -52.5129 26.0864)"
           fill="#999999"
           width="32.64"
           height="2.727"
           id="rect220" /></g></g><g
       id="g222"><g
         id="g224"><rect
           x="252.656"
           y="525.089"
           transform="matrix(0.9949 -0.1012 0.1012 0.9949 -51.8502 30.7532)"
           fill="#999999"
           width="49.092"
           height="2.729"
           id="rect226" /></g></g><g
       id="g228"><g
         id="g230"><rect
           x="195.779"
           y="559.593"
           transform="matrix(0.9949 -0.1011 0.1011 0.9949 -55.667 23.4944)"
           fill="#E25A5A"
           width="16.363"
           height="2.725"
           id="rect232" /></g></g><g
       opacity="0.5"
       id="g234"><g
         id="g236"><rect
           x="217.437"
           y="556.285"
           transform="matrix(0.9949 -0.1011 0.1011 0.9949 -55.1616 26.7664)"
           fill="#999999"
           width="38.158"
           height="2.726"
           id="rect238" /></g></g><g
       id="g240"><g
         id="g242"><rect
           x="207.739"
           y="569.451"
           transform="matrix(0.9949 -0.1011 0.1011 0.9949 -56.5837 24.7425)"
           fill="#999999"
           width="16.32"
           height="2.728"
           id="rect244" /></g></g><g
       id="g246"><g
         id="g248"><rect
           x="213.762"
           y="574.859"
           transform="matrix(0.9949 -0.1012 0.1012 0.9949 -57.1905 24.8655)"
           fill="#E25A5A"
           width="5.54"
           height="2.727"
           id="rect250" /></g></g><g
       id="g252"><g
         id="g254"><rect
           x="229.472"
           y="566.978"
           transform="matrix(0.9949 -0.1011 0.1011 0.9949 -56.232 27.2125)"
           fill="#EB9773"
           width="21.732"
           height="2.726"
           id="rect256" /></g></g><g
       id="g258"><g
         id="g260"><rect
           x="237.241"
           y="643.027"
           transform="matrix(0.9949 -0.1011 0.1011 0.9949 -63.8827 28.3884)"
           fill="#999999"
           width="21.731"
           height="2.726"
           id="rect262" /></g></g><g
       id="g264"><g
         id="g266"><rect
           x="232.154"
           y="591.885"
           transform="matrix(0.9949 -0.1011 0.1011 0.9949 -58.6127 29.8101)"
           fill="#999999"
           width="65.364"
           height="2.727"
           id="rect268" /></g></g><g
       opacity="0.5"
       id="g270"><g
         id="g272"><rect
           x="256.579"
           y="564.502"
           transform="matrix(0.9949 -0.1011 0.1011 0.9949 -55.8336 29.6531)"
           fill="#999999"
           width="16.32"
           height="2.727"
           id="rect274" /></g></g><g
       opacity="0.5"
       id="g276"><g
         id="g278"><rect
           x="241.296"
           y="522.596"
           transform="matrix(0.9949 -0.1012 0.1012 0.9949 -51.734 27.6467)"
           fill="#999999"
           width="10.909"
           height="2.728"
           id="rect280" /></g></g><g
       id="g282"><g
         id="g284"><rect
           x="219.715"
           y="578.092"
           transform="matrix(0.9949 -0.1011 0.1011 0.9949 -57.3698 27.1155)"
           fill="#999999"
           width="38.138"
           height="2.726"
           id="rect286" /></g></g><g
       opacity="0.5"
       id="g288"><g
         id="g290"><rect
           x="212.632"
           y="616.538"
           transform="matrix(0.9949 -0.1011 0.1011 0.9949 -61.2453 27.4225)"
           fill="#999999"
           width="54.542"
           height="2.725"
           id="rect292" /></g></g><g
       opacity="0.5"
       id="g294"><g
         id="g296"><rect
           x="224.706"
           y="627.682"
           transform="matrix(0.9949 -0.1011 0.1011 0.9949 -62.3855 27.3201)"
           fill="#999999"
           width="27.187"
           height="2.727"
           id="rect298" /></g></g><g
       opacity="0.5"
       id="g300"><g
         id="g302"><rect
           x="257.28"
           y="624.914"
           transform="matrix(0.9949 -0.1011 0.1011 0.9949 -61.9781 30.0611)"
           fill="#999999"
           width="16.405"
           height="2.727"
           id="rect304" /></g></g><g
       opacity="0.5"
       id="g306"><g
         id="g308"><rect
           x="279.008"
           y="622.864"
           transform="matrix(0.9949 -0.1012 0.1012 0.9949 -61.7389 32.0039)"
           fill="#999999"
           width="10.822"
           height="2.727"
           id="rect310" /></g></g><g
       opacity="0.5"
       id="g312"><g
         id="g314"><rect
           x="194.145"
           y="543.4"
           transform="matrix(0.9949 -0.1011 0.1011 0.9949 -54.0325 23.5259)"
           fill="#999999"
           width="21.817"
           height="2.727"
           id="rect316" /></g></g><g
       id="g318"><g
         id="g320"><rect
           x="200.198"
           y="548.008"
           transform="matrix(0.9949 -0.1011 0.1011 0.9949 -54.4739 24.1583)"
           fill="#999999"
           width="21.689"
           height="2.725"
           id="rect322" /></g></g><g
       opacity="0.5"
       id="g324"><g
         id="g326"><rect
           x="210.119"
           y="645.787"
           transform="matrix(0.9949 -0.1011 0.1011 0.9949 -64.3082 25.6616)"
           fill="#999999"
           width="21.69"
           height="2.725"
           id="rect328" /></g></g><g
       id="g330"><g
         id="g332"><rect
           x="205.14"
           y="596.854"
           transform="matrix(0.9949 -0.1011 0.1011 0.9949 -59.3638 24.8967)"
           fill="#E25A5A"
           width="21.689"
           height="2.725"
           id="rect334" /></g></g><g
       id="g336"><g
         id="g338"><rect
           x="257.676"
           y="520.238"
           transform="matrix(0.9949 -0.1011 0.1011 0.9949 -51.3626 29.8297)"
           fill="#E25A5A"
           width="21.818"
           height="2.726"
           id="rect340" /></g></g><g
       id="g342"><g
         id="g344"><rect
           x="218.711"
           y="622.648"
           transform="matrix(0.9949 -0.1011 0.1011 0.9949 -61.8844 26.6789)"
           fill="#E25A5A"
           width="27.226"
           height="2.727"
           id="rect346" /></g></g><g
       id="g348"><g
         id="g350"><rect
           x="251.343"
           y="620.226"
           transform="matrix(0.9949 -0.1008 0.1008 0.9949 -61.3628 29.0589)"
           fill="#999999"
           width="10.906"
           height="2.725"
           id="rect352" /></g></g><g
       id="g354"><g
         id="g356"><rect
           x="267.526"
           y="616.853"
           transform="matrix(0.9949 -0.1011 0.1011 0.9949 -61.0135 32.4124)"
           fill="#EB9773"
           width="43.549"
           height="2.727"
           id="rect358" /></g></g><g
       id="g360"><g
         id="g362"><rect
           x="199.068"
           y="592.43"
           transform="matrix(0.9949 -0.1012 0.1012 0.9949 -59.0197 23.7359)"
           fill="#EB9773"
           width="10.908"
           height="2.727"
           id="rect364" /></g></g><g
       id="g366"><g
         id="g368"><rect
           x="204.051"
           y="640.439"
           transform="matrix(0.9949 -0.1011 0.1011 0.9949 -63.7627 25.5793)"
           fill="#E25A5A"
           width="32.81"
           height="2.727"
           id="rect370" /></g></g><g
       opacity="0.5"
       id="g372"><g
         id="g374"><rect
           x="217.007"
           y="605.574"
           transform="matrix(0.9949 -0.1012 0.1012 0.9949 -60.1902 27.2843)"
           fill="#999999"
           width="43.679"
           height="2.727"
           id="rect376" /></g></g></g><g
     id="lalineag"><rect
       x="591.167"
       y="625.833"
       fill="#44C650"
       width="66.333"
       height="66.667"
       id="rect379" /></g><path
     id="wire3"
     stroke-miterlimit="10"
     enable-background="new    "
     d="m 90.111391,-0.83175397 c 0,0 -7.064953,76.71795097 76.792569,76.71795097 83.85752,0 166.43478,0 166.43478,0 h 261.24407 219.20371 c 0,0 60.16521,0.001 60.16521,60.106963 0,60.10596 -27.1327,69.10695 -69.17207,69.10695 -42.03937,0 -292.3637,0 -292.3637,0 0,0 -130.076,-17.58998 -130.076,129.94792 0,147.53791 0,288.02782 0,288.02782 0,0 -8.00688,57.26996 64.33431,57.26996 34.12558,0 100.69508,0 161.50392,0 l 10.30014,0.006 c 2.88884,0 5.77568,0.061 8.66352,0.136 0.71471,0.019 0.99398,-0.208 0.98697,-0.931 -0.028,-4.115 0.16216,-8.24799 -0.1051,-12.34799 -0.24724,-3.77 -0.94193,-7.525 -2.25422,-11.09899 -1.18817,-3.231 -2.9499,-6.175 -4.94286,-9.115 -1.07406,0.802 -2.09206,1.535 -3.08203,2.306 -1.27626,0.993 -2.54351,2.004 -3.79774,3.027 -1.56354,1.273 -2.14912,2.982 -2.08505,4.94099 0.021,0.579 0.17117,1.154 0.22922,1.734 0.0751,0.735 -0.22722,1.325 -0.94993,1.485 -0.73673,0.162 -1.39237,-0.131 -1.57555,-0.936 -0.13914,-0.61 -0.12713,-1.258 -0.2052,-2.169 -0.20821,0.686 -0.34935,1.107 -0.46346,1.537 -0.26927,1.014 -0.86485,1.551 -1.57055,1.339 -0.93692,-0.278 -1.17415,-0.934 -0.84082,-1.799 -0.49049,0.284 -0.94293,0.731 -1.44743,0.802 -1.28326,0.178 -1.8328,-0.674 -1.2172,-1.812 0.61461,-1.13599 1.30829,-2.23099 1.96093,-3.34699 0.11011,-0.188 0.2012,-0.387 0.28729,-0.555 -0.51651,-0.43 -1.12611,-0.736 -1.40238,-1.229 -0.27027,-0.473 -0.33233,-1.173 -0.1972,-1.702 0.0551,-0.218 0.85384,-0.29 1.32331,-0.352 0.66765,-0.087 1.34432,-0.107 2.01898,-0.144 0.47046,-0.024 0.94894,0.019 1.41039,-0.054 0.35835,-0.059 0.77476,-0.162 1.03302,-0.393 2.50546,-2.253 5.00292,-4.517 7.44532,-6.837 0.28428,-0.271 0.37938,-0.938 0.28929,-1.363 -0.24324,-1.16999 -0.61361,-2.31399 -0.97096,-3.45899 -0.21621,-0.695 0.038,-1.026 0.66366,-1.37 1.7317,-0.952 3.40935,-2.007 5.10902,-3.02 -0.0511,-0.08 -0.1001,-0.159 -0.14714,-0.239 -1.04003,0.193 -2.07504,0.471 -3.12408,0.549 -0.63662,0.049 -1.40138,-0.038 -1.92189,-0.364 -0.97295,-0.607 -0.91189,-1.261 -0.014,-1.988 0.14614,-0.121 0.28628,-0.252 0.36336,-0.32 -0.96395,-0.562 -2.04001,-0.986 -2.85581,-1.708 -1.56855,-1.385 -1.31029,-3.319 0.52051,-4.38899 1.61259,-0.939 3.42137,-1.296 5.25117,-1.073 3.43137,0.417 6.48538,1.79599 9.06792,4.10399 2.09906,1.876 3.53147,4.999 1.56354,8.391 4.82274,1.979 9.62447,3.947 14.42319,5.91699 -0.022,-0.11 -0.045,-0.223 -0.0661,-0.333 0.62061,-0.274 1.28526,-0.48 1.85282,-0.843 0.77076,-0.49099 1.51649,-1.04799 2.17714,-1.67799 0.4064,-0.389 0.67967,-0.968 1.33231,-0.568 0.65164,0.4 1.2122,0.915 0.95995,1.817 -0.0611,0.218 -0.14014,0.43199 -0.21421,0.64599 -0.5015,1.458 -0.44244,1.621 0.87486,2.519 1.23221,0.838 2.49846,1.637 3.67161,2.553 0.36035,0.283 0.69068,0.915 0.64764,1.347 -0.0961,0.952 -0.84583,1.208 -1.7267,0.732 -0.24124,-0.13 -0.48348,-0.261 -0.85785,-0.461 0.34434,0.978 1.39738,1.907 0.19019,2.661 -0.98197,0.61 -1.73571,-0.224 -2.51948,-0.861 0.0941,0.243 0.13714,0.523 0.28728,0.722 0.48748,0.636 0.28428,1.214 -0.22822,1.625 -0.6116,0.491 -1.35834,0.403 -1.8298,-0.202 -0.53052,-0.681 -1.02501,-1.442 -1.30829,-2.249 -0.53753,-1.542 -1.44942,-2.448 -3.10205,-2.828 -2.70967,-0.622 -5.37229,-1.445 -8.25612,-2.24 0.3083,0.525 0.50049,0.902 0.73672,1.253 2.06703,3.056 2.93889,6.531 3.48042,10.102 0.63963,4.22499 -0.021,8.38899 -0.65464,12.56399 -0.43843,2.876 -0.69668,5.78499 -0.87486,8.68799 -0.16316,2.657 -0.0671,2.665 2.63059,2.671 l 15.60535,0.199 3.16712,-0.009 c 42.96528,0 75.24304,0.009 75.24304,0.009 0,0 62.01002,4.823 62.01002,-51.17697 0,-55.79496 0,-162.28489 0,-163.43289 0,-15.81299 -5.2852,-32.70298 -9.83968,-47.81197 -3.29524,-10.936 -6.78568,-22.73199 -3.47041,-34.10698 5.17008,-17.73999 24.11873,-26.23398 40.66902,-30.11598 28.95449,-6.792 61.63865,-3.365 89.10268,7.68399 18.33104,7.375 48.62184,25.56199 39.07645,49.86497 -10.34117,26.32699 -51.67185,30.20898 -75.3001,29.44198 -26.7313,-0.865 -68.23715,-8.48299 -82.08277,-35.09597 -13.39418,-25.74099 19.16486,-41.84798 39.18656,-46.93197 31.23374,-7.93 70.69457,-6.425 99.06148,10.19599 22.07372,12.93299 26.1137,34.98698 5.13906,51.38097 -24.87248,19.43798 -63.19319,23.73298 -93.3879,18.28498 -23.05168,-4.15799 -54.53366,-18.82098 -50.97016,-47.16997 3.48744,-27.73598 35.88331,-41.74897 60.51856,-42.55797 160.56303,-4.84799 98.49993,92.69994 99.83424,160.6179 2.3393,44.50497 1.88585,83.61095 -8.99185,126.96892 -10.86569,43.30597 -31.57908,74.35795 -33.72419,120.28692 -0.26025,5.572 -0.44443,5.535 -0.15815,11.01499"
     inkscape:connector-curvature="0"
     style="opacity:0.6;fill:none;stroke:#efefef;stroke-width:1.0004921;stroke-miterlimit:10" /><g
     id="skill01"><g
       id="g383"><circle
         fill="#FFFFFF"
         cx="392.728"
         cy="75.225"
         r="15.104"
         id="circle385" /><text
         transform="matrix(1 0 0 1 375.6284 54)"
         fill="#FFFFFF"
         font-weight="400"
         font-size="18.0063"
         id="text387">Ruby</text>
</g></g><g
     id="skill02"><g
       id="g390"><text
         transform="matrix(1 0 0 1 508.1523 54)"
         fill="#FFFFFF"
         font-weight="400"
         font-size="18.0063"
         id="text392">Ruby on Rails</text>
<circle
         fill="#FFFFFF"
         cx="540.15"
         cy="75.986"
         r="15"
         id="circle394" /></g></g><g
     id="skill03"><g
       id="g397"><text
         font-weight="400"
         font-size="18.0063"
         id="text399"
         x="716.58197"
         y="54"
         style="font-size:18.00629997px;font-weight:400;fill:#ffffff">jQuery / JavaScript libraries</text>
<circle
         fill="#FFFFFF"
         cx="750.15"
         cy="75.986"
         r="17.385"
         id="circle401" /></g></g><g
     id="skill12"><g
       id="g404"><text
         transform="matrix(1 0 0 1 398.4229 416.793)"
         fill="#FFFFFF"
         font-weight="400"
         font-size="18.0063"
         id="text406">Heroku</text>
<circle
         fill="#FFFFFF"
         cx="382.009"
         cy="409.73"
         r="10.213"
         id="circle408" /></g></g><g
     id="skill11"><g
       id="g411"><text
         font-weight="400"
         font-size="18.0063"
         id="text413"
         style="font-size:18.00629997px;font-weight:400;fill:#ffffff"
         x="171.3105"
         y="375.73141">RESTful web services</text>
<circle
         cx="382.009"
         cy="369.73001"
         r="10.213"
         id="circle415"
         sodipodi:cx="382.009"
         sodipodi:cy="369.73001"
         sodipodi:rx="10.213"
         sodipodi:ry="10.213"
         style="fill:#ffffff"
         d="m 392.222,369.73001 c 0,5.64049 -4.57251,10.213 -10.213,10.213 -5.64048,0 -10.213,-4.57251 -10.213,-10.213 0,-5.64048 4.57252,-10.213 10.213,-10.213 5.64049,0 10.213,4.57252 10.213,10.213 z"
         transform="matrix(1.362283,0,0,1.362283,-138.69556,-137.64706)" /></g></g><g
     id="skill18"><g
       id="g418"><text
         transform="matrix(1 0 0 1 400.4229 612.8066)"
         fill="#FFFFFF"
         font-weight="400"
         font-size="18.0063"
         id="text420">LAYER Chat API</text>
<circle
         fill="#FFFFFF"
         cx="382.009"
         cy="606.962"
         r="8"
         id="circle422" /></g></g><g
     id="skill13"><g
       id="g425"><circle
         fill="#FFFFFF"
         cx="382.422"
         cy="441.73"
         r="7.746"
         id="circle427" /><text
         transform="matrix(1 0 0 1 397.4229 446.7305)"
         fill="#FFFFFF"
         font-weight="400"
         font-size="18.0063"
         id="text429">Python</text>
</g></g><g
     id="skill10"><g
       id="g432"><text
         transform="matrix(1 0 0 1 408.4229 333.7314)"
         fill="#FFFFFF"
         font-weight="400"
         font-size="18.0063"
         id="text434">Google Maps API</text>
<circle
         fill="#FFFFFF"
         cx="382.422"
         cy="326.731"
         r="14.449"
         id="circle436" /></g></g><g
     id="skill08"><g
       id="g439"><text
         transform="matrix(1 0 0 1 385.4233 190.5781)"
         fill="#FFFFFF"
         font-weight="400"
         font-size="18.0063"
         id="text441">MVC frameworks</text>
<circle
         cx="448.08899"
         cy="216.5"
         r="11"
         id="circle443"
         sodipodi:cx="448.08899"
         sodipodi:cy="216.5"
         sodipodi:rx="11"
         sodipodi:ry="11"
         transform="matrix(1.1045455,0,0,1.1045455,-45.695665,-23.784092)"
         style="fill:#ffffff" /></g></g><g
     id="skill09"><g
       id="g446"><text
         font-weight="400"
         font-size="18.0063"
         id="text448"
         x="329.08981"
         y="275.9111"
         style="font-size:18.00629997px;font-weight:400;fill:#ffffff">SVG</text>
<circle
         fill="#FFFFFF"
         cx="392.728"
         cy="269.167"
         r="11"
         id="circle450" /></g></g><g
     id="skill06"><g
       id="g453"><text
         transform="matrix(1 0 0 1 684.0898 186.5781)"
         fill="#FFFFFF"
         font-weight="400"
         font-size="18.0063"
         id="text455">PostgresSQL</text>
<circle
         fill="#FFFFFF"
         cx="738.15"
         cy="204.911"
         r="11"
         id="circle457" /></g></g><!-- <g id="skill14">
	<g>
		<text transform="matrix(1 0 0 1 400.4229 476.7305)" fill="#FFFFFF" font-weight="400" font-size="18.0063">Magento / OpenCart</text>
		<circle fill="#FFFFFF" cx="382.009" cy="471.626" r="8"/>
	</g>
</g> --><g
     id="skill15"><g
       id="g460"><text
         transform="matrix(1 0 0 1 401.4219 509.416)"
         fill="#FFFFFF"
         font-weight="400"
         font-size="18.0063"
         id="text462">Linux</text>
<circle
         fill="#FFFFFF"
         cx="382.628"
         cy="502.73"
         r="8"
         id="circle464" /></g></g><!-- <g id="skill16">
	<g>
		<text transform="matrix(1 0 0 1 400.7275 543.416)" fill="#FFFFFF" font-weight="400" font-size="18.0063">Ext JS</text>
		<circle fill="#FFFFFF" cx="381.628" cy="537.73" r="8"/>
	</g>
</g> --><!-- <g id="skill17">
	<g>
		<text transform="matrix(1 0 0 1 401.4219 576.6543)" fill="#FFFFFF" font-weight="400" font-size="18.0063">Docebo/Moodle</text>
		<circle fill="#FFFFFF" cx="382.009" cy="570.839" r="8"/>
	</g>
</g> --><g
     id="skill22"><g
       id="g467"><text
         font-weight="400"
         font-size="18.0063"
         id="text469"
         x="750.08978"
         y="469.80179"
         style="font-size:18.00629997px;font-weight:400;fill:#ffffff">AI</text>
<circle
         fill="#44C650"
         stroke="#FFFFFF"
         stroke-miterlimit="10"
         cx="798.449"
         cy="465.731"
         r="8"
         id="circle471" /></g></g><g
     id="g474"><text
       style="font-size:18.00629997px;font-weight:400;fill:#ffffff"
       id="text476"
       font-size="18.0063"
       font-weight="400"
       x="906.83588"
       y="470.73141">IoT</text>
<circle
       style="fill:#44c650;stroke:#ffffff;stroke-miterlimit:10"
       sodipodi:ry="8"
       sodipodi:rx="8"
       sodipodi:cy="465.73099"
       sodipodi:cx="959.52899"
       d="m 967.52899,465.73099 c 0,4.41828 -3.58172,8 -8,8 -4.41828,0 -8,-3.58172 -8,-8 0,-4.41828 3.58172,-8 8,-8 4.41828,0 8,3.58172 8,8 z"
       id="circle478"
       r="8"
       cy="465.73099"
       cx="959.52899"
       stroke-miterlimit="10" /></g><g
     id="skill21"><g
       id="g481"><text
         font-weight="400"
         font-size="18.0063"
         id="text483"
         x="746.08978"
         y="512.80182"
         style="font-size:18.00629997px;font-weight:400;fill:#ffffff">VR</text>
<circle
         fill="#44C650"
         stroke="#FFFFFF"
         stroke-miterlimit="10"
         cx="798.449"
         cy="505.731"
         r="8"
         id="circle485" /></g></g><text
     font-weight="400"
     font-size="18.0063"
     id="text490"
     style="font-size:18.00629997px;font-weight:400;fill:#ffffff"
     x="848.44629"
     y="512.06348">Scalability</text>
<circle
     stroke-miterlimit="10"
     cx="956.47302"
     cy="506.802"
     r="8"
     id="circle492"
     d="m 964.47302,506.802 c 0,4.41828 -3.58172,8 -8,8 -4.41828,0 -8,-3.58172 -8,-8 0,-4.41828 3.58172,-8 8,-8 4.41828,0 8,3.58172 8,8 z"
     sodipodi:cx="956.47302"
     sodipodi:cy="506.802"
     sodipodi:rx="8"
     sodipodi:ry="8"
     style="fill:#44c650;stroke:#ffffff;stroke-miterlimit:10" /><g
     id="skill20"><g
       id="g495"><text
         font-weight="400"
         font-size="18.0063"
         id="text497"
         x="733.08978"
         y="552.80182"
         style="font-size:18.00629997px;font-weight:400;fill:#ffffff">AWS</text>
<circle
         fill="#44C650"
         stroke="#FFFFFF"
         stroke-miterlimit="10"
         cx="798.449"
         cy="545.731"
         r="8"
         id="circle499" /></g></g><g
     id="g502"><text
       style="font-size:18.00629997px;font-weight:400;fill:#ffffff"
       id="text504"
       font-size="18.0063"
       font-weight="400"
       x="855.18262"
       y="556.06451">Ethereum</text>
<circle
       style="fill:#44c650;stroke:#ffffff;stroke-miterlimit:10"
       sodipodi:ry="8"
       sodipodi:rx="8"
       sodipodi:cy="551.73102"
       sodipodi:cx="958.05902"
       d="m 966.05902,551.73102 c 0,4.41828 -3.58172,8 -8,8 -4.41828,0 -8,-3.58172 -8,-8 0,-4.41828 3.58172,-8 8,-8 4.41828,0 8,3.58172 8,8 z"
       id="circle506"
       r="8"
       cy="551.73102"
       cx="958.05902"
       stroke-miterlimit="10" /></g><g
     id="skill26"><g
       id="g509"><text
         font-weight="400"
         font-size="18.0063"
         id="text511"
         x="845.75677"
         y="602.46881"
         style="font-size:18.00629997px;font-weight:400;fill:#ffffff">Blockchain</text>
<circle
         fill="#44C650"
         stroke="#FFFFFF"
         stroke-miterlimit="10"
         cx="956.473"
         cy="596.63"
         r="8"
         id="circle513" /></g></g><g
     id="skill19"><g
       id="g516"><text
         font-weight="400"
         font-size="18.0063"
         id="text518"
         x="720.08978"
         y="593.62988"
         style="font-size:18.00629997px;font-weight:400;fill:#ffffff">NoSQL</text>
<circle
         fill="#44C650"
         stroke="#FFFFFF"
         stroke-miterlimit="10"
         cx="798.449"
         cy="588.63"
         r="8"
         id="circle520" /></g></g><g
     id="skill04"><g
       id="g523"><circle
         fill="#FFFFFF"
         cx="873.183"
         cy="129.971"
         r="12"
         id="circle525" /><text
         transform="matrix(1 0 0 1 890.1826 135.6523)"
         fill="#FFFFFF"
         font-weight="400"
         font-size="18.0063"
         id="text527">CSS3</text>
</g></g><g
     id="skill05"><g
       id="g530"><text
         transform="matrix(1 0 0 1 869.4229 199.5)"
         fill="#FFFFFF"
         font-weight="400"
         font-size="18.0063"
         id="text532">Git</text>
<circle
         fill="#FFFFFF"
         cx="847.27"
         cy="194.807"
         r="16.589"
         id="circle534" /></g></g><g
     transform="translate(6,0)"
     id="g537"><text
       style="font-size:18.00629997px;font-weight:400;fill:#ffffff"
       id="text539"
       font-size="18.0063"
       font-weight="400"
       x="548.09381"
       y="238.0898">HTML5</text>
<circle
       d="m 591.93501,204.911 c 0,6.40042 -5.18857,11.589 -11.589,11.589 -6.40043,0 -11.589,-5.18858 -11.589,-11.589 0,-6.40043 5.18857,-11.589 11.589,-11.589 6.40043,0 11.589,5.18857 11.589,11.589 z"
       style="fill:#ffffff"
       sodipodi:ry="11.589"
       sodipodi:rx="11.589"
       sodipodi:cy="204.911"
       sodipodi:cx="580.34601"
       id="circle541"
       r="11.589"
       cy="204.911"
       cx="580.34601" /></g><g
     id="interested"
     transform="translate(6,0)"><text
       font-weight="400"
       font-size="18.0063"
       id="text544"
       x="816.78223"
       y="387.23239"
       style="font-size:18.00629997px;font-weight:400;fill:#ffffff"><tspan
         style="fill:#ffffff"
         id="tspan3269"><tspan
           style="font-weight:bold;-inkscape-font-specification:Sans Bold"
           id="tspan3278">Very</tspan></tspan></text>
<text
       font-weight="400"
       font-size="18.0063"
       id="text546"
       x="816.78223"
       y="408.83981"
       style="font-size:18.00629997px;font-weight:400;fill:#ffffff"><tspan
         style="fill:#ffffff"
         id="tspan3264"><tspan
           style="font-weight:bold;-inkscape-font-specification:Sans Bold"
           id="tspan3273">interested in :)</tspan></tspan></text>
</g></svg>
